<svg width="242" height="223" viewBox="0 0 242 223" fill="none" xmlns="http://www.w3.org/2000/svg">
<g filter="url(#filter0_b_89_42934)">
<mask id="path-1-inside-1_89_42934" fill="white">
<path d="M210.943 0.298744C222.282 14.1268 230.787 30.0528 235.971 47.1675C241.155 64.2822 242.918 82.2505 241.158 100.046C239.398 117.842 234.15 135.117 225.714 150.885C217.278 166.653 205.818 180.604 191.99 191.943C178.162 203.282 162.236 211.787 145.122 216.971C128.007 222.155 110.039 223.918 92.2427 222.158C74.4469 220.398 57.172 215.15 41.4043 206.714C25.6365 198.278 11.6849 186.818 0.345765 172.99L65.0229 119.955C69.3972 125.289 74.7794 129.71 80.8622 132.964C86.945 136.219 93.6093 138.243 100.474 138.922C107.34 139.601 114.271 138.921 120.874 136.921C127.476 134.921 133.62 131.641 138.955 127.266C144.289 122.892 148.71 117.51 151.964 111.427C155.219 105.344 157.243 98.6798 157.922 91.8146C158.601 84.9494 157.921 78.0177 155.921 71.4153C153.921 64.8128 150.641 58.669 146.266 53.3345L210.943 0.298744Z"/>
</mask>
<path d="M210.943 0.298744C222.282 14.1268 230.787 30.0528 235.971 47.1675C241.155 64.2822 242.918 82.2505 241.158 100.046C239.398 117.842 234.15 135.117 225.714 150.885C217.278 166.653 205.818 180.604 191.99 191.943C178.162 203.282 162.236 211.787 145.122 216.971C128.007 222.155 110.039 223.918 92.2427 222.158C74.4469 220.398 57.172 215.15 41.4043 206.714C25.6365 198.278 11.6849 186.818 0.345765 172.99L65.0229 119.955C69.3972 125.289 74.7794 129.71 80.8622 132.964C86.945 136.219 93.6093 138.243 100.474 138.922C107.34 139.601 114.271 138.921 120.874 136.921C127.476 134.921 133.62 131.641 138.955 127.266C144.289 122.892 148.71 117.51 151.964 111.427C155.219 105.344 157.243 98.6798 157.922 91.8146C158.601 84.9494 157.921 78.0177 155.921 71.4153C153.921 64.8128 150.641 58.669 146.266 53.3345L210.943 0.298744Z" fill="white" fill-opacity="0.2"/>
<path d="M210.943 0.298744C222.282 14.1268 230.787 30.0528 235.971 47.1675C241.155 64.2822 242.918 82.2505 241.158 100.046C239.398 117.842 234.15 135.117 225.714 150.885C217.278 166.653 205.818 180.604 191.99 191.943C178.162 203.282 162.236 211.787 145.122 216.971C128.007 222.155 110.039 223.918 92.2427 222.158C74.4469 220.398 57.172 215.15 41.4043 206.714C25.6365 198.278 11.6849 186.818 0.345765 172.99L65.0229 119.955C69.3972 125.289 74.7794 129.71 80.8622 132.964C86.945 136.219 93.6093 138.243 100.474 138.922C107.34 139.601 114.271 138.921 120.874 136.921C127.476 134.921 133.62 131.641 138.955 127.266C144.289 122.892 148.71 117.51 151.964 111.427C155.219 105.344 157.243 98.6798 157.922 91.8146C158.601 84.9494 157.921 78.0177 155.921 71.4153C153.921 64.8128 150.641 58.669 146.266 53.3345L210.943 0.298744Z" stroke="url(#paint0_linear_89_42934)" stroke-width="2" mask="url(#path-1-inside-1_89_42934)"/>
</g>
<defs>
<filter id="filter0_b_89_42934" x="-19.6543" y="-19.7012" width="281.473" height="262.52" filterUnits="userSpaceOnUse" color-interpolation-filters="sRGB">
<feFlood flood-opacity="0" result="BackgroundImageFix"/>
<feGaussianBlur in="BackgroundImageFix" stdDeviation="10"/>
<feComposite in2="SourceAlpha" operator="in" result="effect1_backgroundBlur_89_42934"/>
<feBlend mode="normal" in="SourceGraphic" in2="effect1_backgroundBlur_89_42934" result="shape"/>
</filter>
<linearGradient id="paint0_linear_89_42934" x1="-73.7806" y1="82.5931" x2="285.081" y2="90.1642" gradientUnits="userSpaceOnUse">
<stop stop-color="white"/>
<stop offset="1" stop-color="#333333"/>
</linearGradient>
</defs>
</svg>
