<svg width="56" height="56" viewBox="0 0 56 56" fill="none" xmlns="http://www.w3.org/2000/svg">
<rect x="16" y="16" width="24" height="24" fill="white"/>
<path d="M51.4773 16.193C51.1984 15.1541 50.6515 14.2067 49.8914 13.4457C49.1313 12.6846 48.1846 12.1365 47.1461 11.8563C43.3234 10.8281 28 10.8281 28 10.8281C28 10.8281 12.6766 10.8281 8.85391 11.8508C7.81496 12.1301 6.86779 12.6779 6.10753 13.4391C5.34727 14.2003 4.80068 15.1482 4.52266 16.1875C3.5 20.0156 3.5 28 3.5 28C3.5 28 3.5 35.9844 4.52266 39.807C5.08594 41.918 6.74844 43.5805 8.85391 44.1437C12.6766 45.1719 28 45.1719 28 45.1719C28 45.1719 43.3234 45.1719 47.1461 44.1437C49.257 43.5805 50.9141 41.918 51.4773 39.807C52.5 35.9844 52.5 28 52.5 28C52.5 28 52.5 20.0156 51.4773 16.193ZM23.1328 35.3281V20.6719L35.8203 27.9453L23.1328 35.3281Z" fill="#111111"/>
</svg>
