<svg width="56" height="56" viewBox="0 0 56 56" fill="none" xmlns="http://www.w3.org/2000/svg">
<rect x="10" y="10" width="36" height="36" fill="white"/>
<path d="M17.1592 25.9163V22.1713C17.1592 21.9496 17.1592 21.861 17.4485 21.861C19.9288 21.861 21.9448 21.714 22.9458 22.3043C23.9492 22.8923 23.9912 23.7043 24.0075 23.947C24.0262 24.1896 24.0168 24.5373 23.5502 25.3843C23.0835 26.2313 20.9952 26.2476 19.4878 26.2476H17.4928C17.2478 26.2476 17.1592 26.159 17.1592 25.9163ZM24.0332 29.841C24.2639 30.1361 24.4285 30.4774 24.5159 30.8416C24.6034 31.2059 24.6115 31.5847 24.5398 31.9524C24.4681 32.3201 24.3183 32.6681 24.1005 32.9729C23.8826 33.2777 23.6019 33.5321 23.2772 33.719C22.7996 33.9193 22.2877 34.0247 21.7698 34.0293H17.4695C17.2478 34.0293 17.1592 34.0293 17.1592 33.7423V29.309C17.1592 29.0873 17.1592 28.9986 17.4485 28.9986H20.3068C22.0802 28.9986 23.1885 28.8446 24.0332 29.841Z" fill="#111111"/>
<path d="M39.6412 27.7878C39.5224 27.5074 39.342 27.2573 39.1134 27.0562C38.8848 26.855 38.6138 26.7079 38.3205 26.6258C37.7344 26.466 37.1211 26.4322 36.521 26.5268C35.921 26.6213 35.3477 26.8419 34.8392 27.1742C34.3319 27.6857 34.0044 28.3482 33.9058 29.0618C33.9058 29.3115 33.9058 29.3582 34.2022 29.3582H39.7322C40.0052 29.3582 40.0052 29.3582 39.9818 29.0152C39.9552 28.5865 39.8407 28.1682 39.6412 27.7878ZM39.6412 27.7878C39.5224 27.5074 39.3397 27.2573 39.1111 27.0562C38.8824 26.855 38.6138 26.7079 38.3205 26.6258C37.7344 26.466 37.1188 26.4322 36.5187 26.5268C35.9186 26.6213 35.3477 26.8419 34.8392 27.1742C34.3319 27.6857 34.002 28.3482 33.9035 29.0618C33.9035 29.3115 33.9035 29.3582 34.1998 29.3582H39.7322C40.0052 29.3582 40.0052 29.3582 39.9818 29.0152C39.9552 28.5865 39.836 28.1682 39.6365 27.7878M42.2335 5.8335H14.9335C12.52 5.8335 10.2054 6.79224 8.49882 8.49882C6.79224 10.2054 5.8335 12.52 5.8335 14.9335V42.2335C5.8335 44.647 6.79224 46.9616 8.49882 48.6682C10.2054 50.3747 12.52 51.3335 14.9335 51.3335H42.2335C44.647 51.3335 46.9616 50.3747 48.6682 48.6682C50.3747 46.9616 51.3335 44.647 51.3335 42.2335V14.9335C51.3335 12.52 50.3747 10.2054 48.6682 8.49882C46.9616 6.79224 44.647 5.8335 42.2335 5.8335ZM33.3155 20.3235C33.3155 20.1438 33.3155 20.0738 33.5208 20.0738H40.8918V21.9872C40.8918 21.9872 40.8988 22.1225 40.7775 22.1225H33.6352C33.3155 22.1225 33.3155 22.1225 33.3155 21.8052V20.3235ZM26.4905 37.0465C23.6905 38.5702 18.9842 37.9565 13.4098 37.9565V19.0962H22.3045C24.5795 19.0962 27.2862 19.6655 28.0142 22.0758C28.3922 23.1286 28.3692 24.2837 27.9495 25.3206C27.5299 26.3574 26.743 27.2034 25.7392 27.6968C26.6645 28.0392 27.4723 28.6396 28.067 29.4268C28.6618 30.214 29.0186 31.1551 29.0952 32.1387C29.1717 33.1223 28.9649 34.1073 28.4992 34.9771C28.0335 35.8469 27.3283 36.565 26.4672 37.0465H26.4905ZM43.4398 31.6775H34.3398C34.0902 31.6775 33.8615 31.8128 33.9058 32.1325C34.1788 33.4742 34.7925 34.8858 36.1832 35.0912C36.9175 35.3084 37.7034 35.2742 38.4161 34.994C39.1288 34.7137 39.7275 34.2035 40.1172 33.5442C40.1172 33.5442 40.2315 33.4065 40.2992 33.4065H43.2578C43.2578 33.4065 43.4398 33.4065 43.3932 33.5652C43.0833 34.4497 42.6214 35.2733 42.0282 35.9988C41.2372 36.7537 40.283 37.3163 39.2395 37.6428C38.1961 37.9694 37.0914 38.0513 36.0112 37.882C34.931 37.7128 33.9043 37.297 33.0107 36.6669C32.1171 36.0369 31.3807 35.2094 30.8585 34.2488C30.5358 33.6087 30.3355 32.9139 30.2682 32.2002C29.8623 30.4072 30.1725 28.5267 31.1326 26.959C32.0928 25.3913 33.627 24.2605 35.4085 23.8072C40.5722 22.6918 43.8482 26.2408 43.8482 31.2458C43.8558 31.3043 43.8499 31.3638 43.8309 31.4197C43.8119 31.4755 43.7804 31.5263 43.7386 31.568C43.6969 31.6097 43.6462 31.6413 43.5903 31.6603C43.5345 31.6792 43.475 31.6851 43.4165 31.6775H43.4398ZM38.3438 26.6258C37.7578 26.4665 37.1447 26.4331 36.5448 26.5278C35.9452 26.6212 35.4085 26.7355 34.8625 27.1742C34.3165 27.6105 34.0272 28.3478 33.9292 29.0618C33.9292 29.3115 33.9292 29.3582 34.2255 29.3582H39.7322C40.0052 29.3582 40.0052 29.3582 39.9818 29.0152C39.9552 28.5865 39.8407 28.1682 39.6412 27.7878C39.5224 27.5074 39.342 27.2573 39.1134 27.0562C38.8848 26.855 38.6138 26.7079 38.3205 26.6258H38.3438Z" fill="#111111"/>
</svg>
