<svg width="44" height="44" viewBox="0 0 44 44" fill="none" xmlns="http://www.w3.org/2000/svg">
<ellipse cx="22.4554" cy="18.6163" rx="11.5179" ry="6.91071" fill="white"/>
<path d="M39.1665 21.246C37.554 20.9733 35.8743 20.7945 34.5091 20.7462L34.2672 20.7381C34.3236 20.6172 34.3653 20.5365 34.3787 20.5231C34.4083 20.4989 34.4325 20.3968 34.4352 20.2974C34.4352 20.2436 34.4593 20.0635 34.497 19.827C34.8678 19.8405 35.357 19.8512 35.8945 19.8539C37.9585 19.8714 40.1192 20.038 41.6014 20.3C42.4842 20.4559 42.7758 20.4505 42.1254 20.292C41.4643 20.1307 39.5078 19.8969 37.9491 19.7948C36.806 19.726 35.6608 19.6982 34.5158 19.7115C34.5427 19.5583 34.5695 19.389 34.6018 19.2143C34.7254 18.537 34.7671 17.8571 34.7698 16.504C34.7724 14.4077 34.6596 13.8299 33.9769 12.4404C33.7191 11.9051 33.3915 11.4063 33.0027 10.9569C33.3346 9.97601 33.3252 8.46026 32.9826 7.12995C32.7004 6.03883 32.5996 5.96895 31.6119 6.17858C30.7721 6.35729 30.1002 6.60051 29.2389 7.03454C28.8304 7.24014 28.2687 7.55861 27.8615 7.81123C26.8 7.43901 25.7021 7.19311 24.529 7.05873C23.3425 6.92436 20.4306 6.99961 19.3959 7.19042C18.3881 7.37854 17.477 7.60698 16.6547 7.87573C16.2421 7.62311 15.6468 7.28045 15.2195 7.06545C14.3542 6.63008 13.6823 6.3882 12.8411 6.20948C11.8548 5.99851 11.7527 6.06973 11.4705 7.16086C11.1211 8.50864 11.1184 10.0499 11.4638 11.0282C11.5041 11.1397 11.5283 11.219 11.5377 11.2808C10.1375 13.0438 9.6806 15.0164 9.98429 17.7711C10.0649 18.4873 10.1858 19.1458 10.3578 19.7491C9.46426 19.7437 8.19441 19.776 7.27529 19.8351C5.71385 19.9386 3.75735 20.171 3.09623 20.3323C2.44719 20.4895 2.7361 20.4935 3.62029 20.3404C5.10244 20.0797 7.26454 19.9104 9.32854 19.8969C9.71822 19.8942 10.081 19.8862 10.3955 19.8781C10.4895 20.1966 10.597 20.5003 10.718 20.7892H10.7113C9.34735 20.8375 7.66901 21.0176 6.05516 21.2864C4.84579 21.4906 3.0586 21.8964 2.84898 22.012C2.6286 22.1356 2.80866 22.1087 3.74526 21.8709C5.45585 21.4382 7.67976 21.1049 10.4344 20.8765L10.7435 20.8496C11.3348 22.2203 12.2445 23.2684 13.5318 24.0881C14.3192 24.5879 15.581 25.1026 16.2166 25.1832C16.3913 25.2047 16.8992 25.3095 17.3453 25.4144C17.7928 25.5192 18.6676 25.6764 19.2884 25.7664H19.3018L19.2696 25.7879C18.5171 26.1776 18.028 26.7877 17.6974 27.7458C17.5496 27.7901 17.3668 27.8506 17.168 27.9204C16.4558 28.1623 16.1803 28.2107 15.4614 28.2161C14.7129 28.2215 14.5342 28.1892 14.0908 27.9796C13.4031 27.6415 12.8275 27.1124 12.4326 26.4558C11.7607 25.3458 10.5957 24.5611 9.62416 24.5611C8.79641 24.5611 8.63919 24.897 9.23851 25.3875C10.1415 26.1265 10.8161 26.879 11.0929 27.4542L11.6263 28.5614C11.7742 28.8665 12.0859 29.2803 12.3842 29.5665C13.0857 30.2357 13.7629 30.5555 14.7734 30.706C15.4507 30.8055 15.6173 30.8055 16.4168 30.7034C16.8025 30.6563 17.129 30.6012 17.4193 30.5327V31.6803C17.4193 34.0533 17.3924 34.8166 17.2983 35.0396C17.1196 35.4643 16.7205 35.8996 16.3348 36.0972C15.9492 36.2947 15.8296 36.511 15.9922 36.7099C16.0836 36.8174 16.2569 36.8362 16.8388 36.7986C17.9433 36.7314 18.724 36.3216 19.1231 35.6027C19.2494 35.3702 19.279 34.9039 19.3193 32.4852C19.3623 29.8622 19.3811 29.6095 19.5518 29.2333C19.6539 29.0116 19.8031 28.7697 19.8877 28.7039C20.0261 28.5883 20.0355 28.8167 20.0355 31.9557C20.0355 35.4199 19.9993 35.8392 19.6526 36.5043C19.5746 36.6562 19.4268 36.8537 19.3233 36.9478C19.1419 37.113 19.0653 37.5363 19.1917 37.664C19.3999 37.8709 20.444 37.5457 21.0138 37.0969C21.984 36.3283 22.0995 35.6927 22.1076 31.1038L22.1116 28.4096L22.4073 28.4364L22.7002 28.4633L22.7486 31.9839C22.8023 35.9507 22.8104 36.0085 23.4849 36.7744C23.8679 37.2071 24.2536 37.4463 24.8824 37.6344C25.7209 37.8857 25.9736 37.496 25.4092 36.8201C24.7951 36.0837 24.7642 35.8029 24.7991 31.4518C24.822 28.6622 24.822 28.6622 25.0007 28.8248C25.381 29.1688 25.4535 29.7332 25.4535 32.3495C25.4535 35.5986 25.5476 35.9077 26.6938 36.4748C27.2313 36.7368 27.3791 36.7704 28.0671 36.7704C28.7981 36.7744 28.8425 36.7637 28.8693 36.5729C28.8922 36.4183 28.8022 36.3135 28.4608 36.1052C28.0395 35.8565 27.7068 35.4819 27.5095 35.0343C27.4356 34.8649 27.3858 33.747 27.3523 31.4465C27.3039 28.2295 27.2931 28.083 27.0929 27.5791C26.8242 26.9019 26.4103 26.3671 25.8876 26.0123C25.7532 25.9236 25.6161 25.8511 25.4401 25.7946C25.6551 25.7731 25.8661 25.7503 26.069 25.7207C28.1813 25.4385 29.298 25.2047 30.1943 24.858C32.089 24.1284 33.3723 22.9163 34.067 21.1977C34.1288 21.0445 34.1906 20.8994 34.2417 20.7811L34.7792 20.8268C37.5338 21.0593 39.7578 21.3912 41.4683 21.8252C42.4063 22.0644 42.5837 22.0939 42.366 21.9676C42.1617 21.8534 40.3745 21.449 39.1652 21.246H39.1665ZM31.0852 21.203C30.7721 21.891 29.8987 22.7752 29.1932 23.1219C28.4971 23.4659 27.406 23.7266 26.1698 23.8529C25.3232 23.9389 20.6107 23.9644 19.8326 23.8879C17.2567 23.6352 15.8148 23.1394 14.7492 22.1464C13.7414 21.203 13.2711 19.9224 13.3517 18.3462C13.4055 17.3599 13.6433 16.7405 14.2655 15.988C14.8298 15.3026 15.4265 14.8794 16.1279 14.6644C16.7165 14.4843 18.5198 14.4682 20.9412 14.624C22.0122 14.6912 22.8977 14.6912 23.9673 14.624C26.5017 14.4628 28.1934 14.4816 28.8183 14.6751C29.7992 14.9788 30.6955 15.7958 31.233 16.8842C31.4749 17.3707 31.5233 17.5776 31.5582 18.3288C31.6066 19.3634 31.4278 20.4613 31.0879 21.2017L31.0852 21.203ZM18.3061 16.7606C16.8643 16.508 16.0406 18.9778 17.1465 20.2369C17.6705 20.8335 18.1368 20.9316 18.7187 20.5688C19.2602 20.2329 19.5518 19.6013 19.5518 18.7843C19.5518 17.6932 19.0573 16.8923 18.3048 16.7579L18.3061 16.7606ZM27.058 16.9084C25.6161 16.6558 24.7911 19.1216 25.897 20.3834C26.4251 20.9813 26.8913 21.0821 27.4745 20.7153C28.012 20.3793 28.3077 19.7478 28.3077 18.9308C28.3077 17.845 27.8105 17.0414 27.058 16.9084Z" fill="#111111"/>
</svg>
