<svg width="56" height="56" viewBox="0 0 56 56" fill="none" xmlns="http://www.w3.org/2000/svg">
<rect x="13" y="13" width="31" height="31" fill="white"/>
<path d="M48.8765 19.3782C48.853 17.611 48.5221 15.8614 47.8988 14.2076C47.3583 12.8126 46.5328 11.5457 45.4749 10.4878C44.417 9.42998 43.1501 8.60442 41.7552 8.0639C40.1226 7.45107 38.3979 7.1197 36.6545 7.0839C34.4098 6.98357 33.6982 6.95557 28.0002 6.95557C22.3022 6.95557 21.5718 6.95557 19.3435 7.0839C17.6009 7.11996 15.877 7.45133 14.2452 8.0639C12.85 8.60404 11.5829 9.42947 10.525 10.4874C9.46707 11.5453 8.64164 12.8124 8.1015 14.2076C7.48744 15.8389 7.15678 17.5632 7.12383 19.3059C7.0235 21.5529 6.99316 22.2646 6.99316 27.9626C6.99316 33.6606 6.99316 34.3886 7.12383 36.6192C7.15883 38.3646 7.48783 40.0866 8.1015 41.7222C8.64255 43.117 9.46859 44.3836 10.5268 45.441C11.5851 46.4985 12.8523 47.3236 14.2475 47.8636C15.8748 48.501 17.599 48.8561 19.3458 48.9136C21.5928 49.0139 22.3045 49.0442 28.0025 49.0442C33.7005 49.0442 34.4308 49.0442 36.6592 48.9136C38.4025 48.8792 40.1273 48.5486 41.7598 47.9359C43.1544 47.3948 44.421 46.569 45.4788 45.5112C46.5366 44.4534 47.3624 43.1868 47.9035 41.7922C48.5172 40.1589 48.8462 38.4369 48.8812 36.6892C48.9815 34.4446 49.0118 33.7329 49.0118 28.0326C49.0072 22.3346 49.0072 21.6112 48.8765 19.3782ZM27.9862 38.7379C22.0268 38.7379 17.1992 33.9102 17.1992 27.9509C17.1992 21.9916 22.0268 17.1639 27.9862 17.1639C30.8471 17.1639 33.5908 18.3004 35.6137 20.3233C37.6367 22.3463 38.7732 25.09 38.7732 27.9509C38.7732 30.8118 37.6367 33.5555 35.6137 35.5785C33.5908 37.6014 30.8471 38.7379 27.9862 38.7379ZM39.2025 19.2802C38.8721 19.2805 38.5449 19.2157 38.2396 19.0894C37.9342 18.9631 37.6568 18.7778 37.4232 18.5442C37.1896 18.3106 37.0043 18.0332 36.878 17.7278C36.7517 17.4225 36.6869 17.0953 36.6872 16.7649C36.6872 16.4347 36.7522 16.1078 36.8785 15.8028C37.0049 15.4977 37.1901 15.2206 37.4235 14.9871C37.657 14.7537 37.9342 14.5685 38.2392 14.4421C38.5442 14.3158 38.8712 14.2507 39.2013 14.2507C39.5315 14.2507 39.8584 14.3158 40.1635 14.4421C40.4685 14.5685 40.7457 14.7537 40.9791 14.9871C41.2126 15.2206 41.3978 15.4977 41.5241 15.8028C41.6505 16.1078 41.7155 16.4347 41.7155 16.7649C41.7155 18.1556 40.5908 19.2802 39.2025 19.2802Z" fill="#111111"/>
<path d="M27.986 34.9578C31.8559 34.9578 34.993 31.8207 34.993 27.9508C34.993 24.081 31.8559 20.9438 27.986 20.9438C24.1161 20.9438 20.979 24.081 20.979 27.9508C20.979 31.8207 24.1161 34.9578 27.986 34.9578Z" fill="#111111"/>
</svg>
