<svg width="56" height="56" viewBox="0 0 56 56" fill="none" xmlns="http://www.w3.org/2000/svg">
<circle cx="28" cy="28" r="21" fill="#111111"/>
<path d="M15.25 21.25C15.25 22.2446 15.6451 23.1984 16.3483 23.9017C17.0516 24.6049 18.0054 25 19 25C19.9946 25 20.9484 24.6049 21.6517 23.9017C22.3549 23.1984 22.75 22.2446 22.75 21.25C22.75 20.2554 22.3549 19.3016 21.6517 18.5983C20.9484 17.8951 19.9946 17.5 19 17.5C18.0054 17.5 17.0516 17.8951 16.3483 18.5983C15.6451 19.3016 15.25 20.2554 15.25 21.25ZM24.25 39.25C24.25 40.2446 24.6451 41.1984 25.3483 41.9016C26.0516 42.6049 27.0054 43 28 43C28.9946 43 29.9484 42.6049 30.6517 41.9016C31.3549 41.1984 31.75 40.2446 31.75 39.25C31.75 38.2554 31.3549 37.3016 30.6517 36.5983C29.9484 35.8951 28.9946 35.5 28 35.5C27.0054 35.5 26.0516 35.8951 25.3483 36.5983C24.6451 37.3016 24.25 38.2554 24.25 39.25ZM24.25 30.25C24.25 31.2446 24.6451 32.1984 25.3483 32.9017C26.0516 33.6049 27.0054 34 28 34C28.9946 34 29.9484 33.6049 30.6517 32.9017C31.3549 32.1984 31.75 31.2446 31.75 30.25C31.75 29.2554 31.3549 28.3016 30.6517 27.5983C29.9484 26.8951 28.9946 26.5 28 26.5C27.0054 26.5 26.0516 26.8951 25.3483 27.5983C24.6451 28.3016 24.25 29.2554 24.25 30.25ZM24.25 21.25C24.25 22.2446 24.6451 23.1984 25.3483 23.9017C26.0516 24.6049 27.0054 25 28 25C28.9946 25 29.9484 24.6049 30.6517 23.9017C31.3549 23.1984 31.75 22.2446 31.75 21.25C31.75 20.2554 31.3549 19.3016 30.6517 18.5983C29.9484 17.8951 28.9946 17.5 28 17.5C27.0054 17.5 26.0516 17.8951 25.3483 18.5983C24.6451 19.3016 24.25 20.2554 24.25 21.25ZM33.25 21.25C33.25 22.2446 33.6451 23.1984 34.3483 23.9017C35.0516 24.6049 36.0054 25 37 25C37.9946 25 38.9484 24.6049 39.6516 23.9017C40.3549 23.1984 40.75 22.2446 40.75 21.25C40.75 20.2554 40.3549 19.3016 39.6516 18.5983C38.9484 17.8951 37.9946 17.5 37 17.5C36.0054 17.5 35.0516 17.8951 34.3483 18.5983C33.6451 19.3016 33.25 20.2554 33.25 21.25Z" fill="white"/>
</svg>
