<svg width="57" height="57" viewBox="0 0 57 57" fill="none" xmlns="http://www.w3.org/2000/svg">
<circle cx="28.6123" cy="28.6123" r="28" fill="white"/>
<path d="M28.6123 0.612305C13.1423 0.612305 0.612305 13.1423 0.612305 28.6123C0.612305 41.0023 8.6273 51.4673 19.7573 55.1773C21.1573 55.4223 21.6823 54.5823 21.6823 53.8473C21.6823 53.1823 21.6473 50.9773 21.6473 48.6323C14.6123 49.9273 12.7923 46.9173 12.2323 45.3423C11.9173 44.5373 10.5523 42.0523 9.3623 41.3873C8.3823 40.8623 6.9823 39.5673 9.3273 39.5323C11.5323 39.4973 13.1073 41.5623 13.6323 42.4023C16.1523 46.6373 20.1773 45.4473 21.7873 44.7123C22.0323 42.8923 22.7673 41.6673 23.5723 40.9673C17.3423 40.2673 10.8323 37.8523 10.8323 27.1423C10.8323 24.0973 11.9173 21.5773 13.7023 19.6173C13.4223 18.9173 12.4423 16.0473 13.9823 12.1973C13.9823 12.1973 16.3273 11.4623 21.6823 15.0673C23.9223 14.4373 26.3023 14.1223 28.6823 14.1223C31.0623 14.1223 33.4423 14.4373 35.6823 15.0673C41.0373 11.4273 43.3823 12.1973 43.3823 12.1973C44.9223 16.0473 43.9423 18.9173 43.6623 19.6173C45.4473 21.5773 46.5323 24.0623 46.5323 27.1423C46.5323 37.8873 39.9873 40.2673 33.7573 40.9673C34.7723 41.8423 35.6473 43.5223 35.6473 46.1473C35.6473 49.8923 35.6123 52.9023 35.6123 53.8473C35.6123 54.5823 36.1373 55.4573 37.5373 55.1773C43.0967 53.3022 47.9277 49.7301 51.3497 44.9644C54.7717 40.1987 56.6124 34.4794 56.6123 28.6123C56.6123 13.1423 44.0823 0.612305 28.6123 0.612305Z" fill="#111111"/>
</svg>
