<svg width="56" height="56" viewBox="0 0 56 56" fill="none" xmlns="http://www.w3.org/2000/svg">
<rect x="7" y="12" width="42" height="18" fill="white"/>
<path d="M9.33317 46.6668C8.04984 46.6668 6.95162 46.2103 6.0385 45.2972C5.12539 44.3841 4.66806 43.285 4.6665 42.0002V14.0002C4.6665 12.7168 5.12384 11.6186 6.0385 10.7055C6.95317 9.79238 8.05139 9.33505 9.33317 9.3335H46.6665C47.9498 9.3335 49.0488 9.79083 49.9635 10.7055C50.8782 11.6202 51.3347 12.7184 51.3332 14.0002V42.0002C51.3332 43.2835 50.8766 44.3825 49.9635 45.2972C49.0504 46.2118 47.9514 46.6684 46.6665 46.6668H9.33317ZM27.9998 30.3335L46.6665 18.6668V14.0002L27.9998 25.6668L9.33317 14.0002V18.6668L27.9998 30.3335Z" fill="#111111"/>
</svg>
