<svg width="46" height="16" viewBox="0 0 46 16" fill="none" xmlns="http://www.w3.org/2000/svg">
<path d="M45.7141 16H41.0409C41.0409 9.18333 38.3371 4.66667 36.5346 4.66667C34.732 4.66667 32.0282 9.18333 32.0282 16H27.355C27.355 6.88333 31.2939 0 36.5346 0C41.7753 0 45.7141 6.88333 45.7141 16Z" fill="url(#paint0_linear_119_186)"/>
<path d="M32.0451 16H27.3718C27.3718 9.75 22.2813 4.66667 16.0225 4.66667C9.76373 4.66667 4.67324 9.75 4.67324 16H0C0 7.18333 7.19345 0 16.0225 0C24.8516 0 32.0451 7.18333 32.0451 16Z" fill="white"/>
<defs>
<linearGradient id="paint0_linear_119_186" x1="26.3405" y1="13.1856" x2="44.118" y2="6.70597" gradientUnits="userSpaceOnUse">
<stop stop-color="#616161"/>
<stop offset="0.00481641" stop-color="#656565"/>
<stop offset="0.056927" stop-color="#898989"/>
<stop offset="0.114" stop-color="#A8A8A8"/>
<stop offset="0.1786" stop-color="#C4C4C4"/>
<stop offset="0.2516" stop-color="#DADADA"/>
<stop offset="0.3367" stop-color="#EBEBEB"/>
<stop offset="0.4421" stop-color="#F6F6F6"/>
<stop offset="0.5898" stop-color="#FDFDFD"/>
<stop offset="1" stop-color="white"/>
</linearGradient>
</defs>
</svg>
