<svg width="476" height="192" viewBox="0 0 476 192" fill="none" xmlns="http://www.w3.org/2000/svg">
<path d="M402 48.0313L400.994 49.1437L402 48.0313ZM472.447 137.267C472.871 137.979 473.791 138.213 474.503 137.789C475.215 137.365 475.449 136.445 475.025 135.733L472.447 137.267ZM3.21068 191.417C40.132 140.941 104.374 73.303 177.058 34.366C213.39 14.9033 251.748 2.65593 289.809 3.23265C327.831 3.80879 365.658 17.1829 400.994 49.1437L403.006 46.9188C367.142 14.4796 328.619 0.82039 289.854 0.232997C251.127 -0.353819 212.26 12.1051 175.642 31.7215C102.426 70.9429 37.868 138.955 0.789315 189.646L3.21068 191.417ZM400.994 49.1437C429.446 74.8787 453.252 105.011 472.447 137.267L475.025 135.733C455.694 103.249 431.704 72.8758 403.006 46.9188L400.994 49.1437Z" fill="#06C1F4"/>
</svg>
