<svg width="606" height="769" viewBox="0 0 606 769" fill="none" xmlns="http://www.w3.org/2000/svg">
<path d="M88.0001 587.531L87.5831 588.972L88.0001 587.531ZM530.5 41.0313L529.574 42.2113L530.5 41.0313ZM213.901 369.781C213.737 368.969 212.945 368.444 212.133 368.608C211.321 368.773 210.797 369.565 210.961 370.376L213.901 369.781ZM88.4171 586.09C54.2862 576.213 31.5834 557.217 18.3653 531.98C5.12384 506.699 1.32494 475.007 5.32603 439.657C13.3304 368.939 52.5024 284.055 108.561 207.98C164.613 131.916 237.407 64.8492 312.457 29.6459C387.473 -5.54113 464.536 -8.82826 529.574 42.2113L531.426 39.8512C465.214 -12.1093 386.853 -8.56413 311.183 26.9298C235.548 62.4075 162.393 129.871 106.146 206.201C49.9065 282.521 10.4292 367.897 2.34507 439.32C-1.69806 475.041 2.09906 507.39 15.7078 533.372C29.3399 559.399 52.7415 578.889 87.5831 588.972L88.4171 586.09ZM529.574 42.2113C558.572 64.9679 575.1 89.6633 582.714 115.878C590.333 142.112 589.065 170.006 582.231 199.211C575.395 228.423 563.009 258.871 548.474 290.178C541.208 305.827 533.414 321.674 525.515 337.68C517.619 353.68 509.618 369.84 501.952 386.091C471.316 451.039 445.864 517.777 453.658 582.738C461.47 647.85 502.616 710.809 604.261 768.337L605.739 765.726C504.634 708.504 464.3 646.258 456.636 582.381C448.955 518.352 474.032 452.314 504.665 387.371C512.317 371.149 520.305 355.015 528.205 339.007C536.103 323.004 543.912 307.127 551.195 291.441C565.756 260.078 578.245 229.409 585.152 199.894C592.06 170.371 593.403 141.924 585.595 115.041C577.781 88.137 560.842 62.9358 531.426 39.8512L529.574 42.2113ZM210.961 370.376C224.27 436.067 220.32 497.925 199.68 539.345C189.373 560.03 174.939 575.555 156.47 583.999C138.01 592.438 115.345 593.883 88.4171 586.09L87.5831 588.972C115.053 596.922 138.477 595.524 157.717 586.727C176.95 577.934 191.828 561.83 202.365 540.683C223.414 498.441 227.282 435.83 213.901 369.781L210.961 370.376Z" fill="#06C1F4"/>
</svg>
